<svg xmlns="http://www.w3.org/2000/svg" viewBox="0 0 100 100">
  <!-- Bean: classic bean shape, reddish-brown -->
  <!-- Shadow -->
  <ellipse cx="52" cy="75" rx="22" ry="6" fill="#2C3E35" opacity="0.15"/>
  <!-- Main bean shape - kidney/classic form -->
  <path d="M28 45 Q22 30 35 22 Q50 15 62 22 Q75 30 72 45 Q70 55 65 62 Q58 72 50 70 Q42 68 38 60 Q32 55 28 45 Z" fill="#8B4513" stroke="#6B3410" stroke-width="1.5"/>
  <!-- Bean inner gradient highlight -->
  <path d="M32 42 Q28 32 38 25 Q50 18 60 25 Q70 32 68 42 Q65 50 60 56 Q55 62 50 60 Q44 58 40 52 Q35 48 32 42 Z" fill="#A0522D" opacity="0.7"/>
  <!-- Bean hilum (eye/scar) -->
  <path d="M48 38 Q50 32 52 38" fill="none" stroke="#5C2D0A" stroke-width="2" stroke-linecap="round"/>
  <!-- Subtle highlight -->
  <ellipse cx="42" cy="35" rx="6" ry="4" fill="#B8673A" opacity="0.4" transform="rotate(-15 42 35)"/>
  <!-- Second bean behind -->
  <path d="M45 60 Q40 52 45 46 Q52 40 60 46 Q68 52 66 60 Q64 68 58 72 Q52 76 48 72 Q44 68 45 60 Z" fill="#7A3B10" stroke="#5C2D0A" stroke-width="1"/>
  <ellipse cx="54" cy="55" rx="4" ry="3" fill="#8B5020" opacity="0.5"/>
</svg>
