<svg xmlns="http://www.w3.org/2000/svg" viewBox="0 0 32 32">
  <circle cx="16" cy="16" r="15" fill="#1A7A3D"/>
  <circle cx="16" cy="16" r="13.5" fill="none" stroke="#F0650C" stroke-width="1"/>
  <path d="M16 6 C12 6, 8 10, 8 16 C8 18, 9 20, 11 21 C11 17, 13 13, 16 11 C19 13, 21 17, 21 21 C23 20, 24 18, 24 16 C24 10, 20 6, 16 6Z" fill="#25A356" opacity="0.9"/>
  <path d="M16 11 C13 14, 11 18, 11 22 C13 24, 15 25, 16 25 C17 25, 19 24, 21 22 C21 18, 19 14, 16 11Z" fill="#F0650C" opacity="0.85"/>
  <path d="M16 14 L16 22 M13.5 18 L18.5 18" stroke="white" stroke-width="1.2" stroke-linecap="round"/>
</svg>
